<svg xmlns="http://www.w3.org/2000/svg" width="161.488" height="48.929" viewBox="0 0 161.488 48.929">
  <g id="Group_24" data-name="Group 24" transform="translate(-32.752 -16)">
    <g id="Group_22" data-name="Group 22" transform="translate(-181 8.668)">
      <path id="Path_1" data-name="Path 1" d="M365.191,151.573a5.34,5.34,0,0,1,.079-1.042,3.952,3.952,0,0,1,.12-.492c.1-.376.178-.754.3-1.124.162-.471.353-.928.527-1.394.162-.434.374-.842.572-1.258.1-.219.226-.43.345-.64a1.4,1.4,0,0,1,.366-.383,7.167,7.167,0,0,0,.738-.734,2.377,2.377,0,0,1,.6-.48,3.228,3.228,0,0,0,.655-.5,3.08,3.08,0,0,1,.816-.522c.485-.225.986-.413,1.476-.624a7.172,7.172,0,0,0,.762-.314,1.9,1.9,0,0,1,.536-.157,8.342,8.342,0,0,0,1.017-.234,2.371,2.371,0,0,1,.359-.041,6.294,6.294,0,0,1,1.439-.2.4.4,0,0,0,.1-.011,4.251,4.251,0,0,1,1.26-.046,5.135,5.135,0,0,0,.821-.046,1.06,1.06,0,0,1,.284.031,5.327,5.327,0,0,0,.974.185.3.3,0,0,1,.249.122.178.178,0,0,0,.232.07c.117-.048.217.04.326.061a1.268,1.268,0,0,1,.637.273.923.923,0,0,0,.331.135,2.7,2.7,0,0,1,.614.42c.111.081.237.133.35.2a1.921,1.921,0,0,1,.425.343c.167.179.418.238.594.408a6,6,0,0,1,.632.522.248.248,0,0,0,.067.066,14.2,14.2,0,0,1,2.171,1.846,3.7,3.7,0,0,1,.374.465,3.373,3.373,0,0,0,.446.568,1.819,1.819,0,0,1,.371.641.847.847,0,0,0,.186.308.365.365,0,0,1,.07.1,8.541,8.541,0,0,1,.579,1.188c.062.191.119.385.2.569a2.942,2.942,0,0,1,.071.614.383.383,0,0,0,.045.168.326.326,0,0,1,.061.182c-.015.432.159.838.156,1.271s-.006.844-.034,1.265a2.309,2.309,0,0,1-.16.707.538.538,0,0,0-.049.331.469.469,0,0,1-.013.217c-.094.346-.119.7-.187,1.053a1.736,1.736,0,0,1-.176.526.724.724,0,0,0-.085.272.922.922,0,0,1-.215.529,3.939,3.939,0,0,0-.572,1,2.563,2.563,0,0,1-.308.492,5.665,5.665,0,0,0-.427.647,1.518,1.518,0,0,1-.472.482,7.963,7.963,0,0,0-1,.813,2.172,2.172,0,0,1-.428.273,7.716,7.716,0,0,1-1.224.769,5.449,5.449,0,0,1-1.277.437,1.919,1.919,0,0,0-.475.162,2.472,2.472,0,0,1-.86.117c-.463.01-.922.048-1.383.075a6.188,6.188,0,0,1-.633.007.825.825,0,0,1-.329-.075c-.215-.109-.46-.1-.673-.193a6.382,6.382,0,0,1-.737-.219,1.482,1.482,0,0,0-.331-.071c-.374-.1-.74-.238-1.119-.3-.5-.087-.967-.255-1.454-.37-.1-.023-.179-.073-.274-.1a11.479,11.479,0,0,1-1.452-.458,3.681,3.681,0,0,0-.912-.24,2.757,2.757,0,0,1-.7-.26.855.855,0,0,0-.278-.071.78.78,0,0,1-.274-.088c-.175-.082-.341-.184-.519-.259a6.294,6.294,0,0,1-1.023-.692,8.087,8.087,0,0,1-1.4-1.4c-.016-.018-.025-.046-.045-.057-.329-.176-.4-.531-.568-.819a5.64,5.64,0,0,1-.467-1.082.475.475,0,0,0-.1-.193.837.837,0,0,1-.2-.407c-.041-.172-.146-.322-.183-.5A12.146,12.146,0,0,1,365.191,151.573Z" transform="translate(-148.804 -134)" fill="#d85112"/>
      <path id="Path_2" data-name="Path 2" d="M356.206,328.865c-.093,0-.186,0-.278,0a.242.242,0,0,0-.134.022.654.654,0,0,1-.657.042.977.977,0,0,0-.519-.031,1.375,1.375,0,0,1-.773-.061,12.286,12.286,0,0,0-1.206-.31c-.279-.072-.537-.19-.805-.286-.428-.151-.824-.375-1.244-.546-.111-.045-.233-.076-.347-.119a1.483,1.483,0,0,1-.7-.536c-.248-.346-.6-.6-.848-.946-.178-.242-.421-.425-.582-.682-.053-.085-.178-.123-.243-.2a11.665,11.665,0,0,1-.813-1.034,5.5,5.5,0,0,1-.562-1.357c-.067-.219-.19-.422-.242-.647a2.5,2.5,0,0,0-.213-.528,2.195,2.195,0,0,1-.218-.912.649.649,0,0,0-.022-.137,1.225,1.225,0,0,1-.026-.551,5.385,5.385,0,0,1,.3-1.3,1.172,1.172,0,0,0,.1-.425,6.211,6.211,0,0,1,.329-1.51,2.506,2.506,0,0,1,.236-.568.954.954,0,0,0,.115-.276,3.546,3.546,0,0,1,.21-.488c.2-.481.538-.881.752-1.354a1.236,1.236,0,0,1,.258-.353c.369-.366.644-.809.986-1.2.321-.364.646-.723.973-1.082a.617.617,0,0,1,.165-.127c.376-.2.73-.436,1.085-.667a11.49,11.49,0,0,1,1.349-.76,3.158,3.158,0,0,1,.7-.226c.363-.078.728-.139,1.094-.193a6.268,6.268,0,0,1,.89-.145.505.505,0,0,0,.18-.041,1.464,1.464,0,0,1,.86-.008,4.167,4.167,0,0,0,.75.112,4.726,4.726,0,0,1,1.15.232c.364.1.713.246,1.085.31a1.782,1.782,0,0,1,.669.294.409.409,0,0,0,.142.068,1.894,1.894,0,0,1,.749.338c.184.133.415.2.613.316.238.139.465.3.694.452.125.083.181.228.285.332a1.229,1.229,0,0,0,.142.15c.411.292.67.735,1.054,1.054.024.02.057.04.064.066.089.322.437.482.51.814a12.446,12.446,0,0,1,.723,1.357,5.545,5.545,0,0,1,.484.895c.064.182.234.3.3.492a1.541,1.541,0,0,1,.079.265c.079.556.18,1.111.22,1.67.019.257.076.509.082.762a3.234,3.234,0,0,1-.166,1.455,1.179,1.179,0,0,0-.056.517c0,.054.026.12,0,.159-.178.318-.064.7-.238,1.022-.164.3-.307.622-.466.931-.191.371-.44.7-.659,1.056a1.668,1.668,0,0,0-.287.49c-.331.306-.538.729-.948.964-.148.085-.244.254-.377.37a5.1,5.1,0,0,1-2.019,1.212,5.562,5.562,0,0,0-.881.34,7.481,7.481,0,0,0-.681.332,6.553,6.553,0,0,1-1.694.525A5.875,5.875,0,0,1,356.206,328.865Zm-2.093-15.354c.019.031.04.051.072.045.008,0,.018-.022.017-.033,0-.027-.008-.061-.048-.049C354.137,313.479,354.126,313.5,354.112,313.511Zm2.738,14.761a.093.093,0,0,0-.1-.015c-.023.007-.036.027-.02.048s.053.022.082.012S356.851,328.3,356.851,328.272Z" transform="translate(-132 -279.218)" fill="#abf5e7"/>
      <path id="Path_3" data-name="Path 3" d="M543.051,300.06a7.716,7.716,0,0,1,1.813.167,4.805,4.805,0,0,1,.745.253,4.312,4.312,0,0,0,.656.18c.073.016.145.024.183.1a.1.1,0,0,0,.088.054,2.368,2.368,0,0,1,.876.3,5.859,5.859,0,0,1,.821.681,7.236,7.236,0,0,1,.656.709c.127.15.268.295.409.436a4.917,4.917,0,0,1,.7.783.976.976,0,0,0,.233.232.814.814,0,0,1,.27.341,3.144,3.144,0,0,0,.244.379c.013.025.059.044.057.062-.02.2.14.274.242.391a.214.214,0,0,1,.055.094c.041.239.19.441.226.681a1.236,1.236,0,0,0,.126.369,7.534,7.534,0,0,1,.264.838,7.418,7.418,0,0,1,.241.886,4.326,4.326,0,0,1,.1,1.657,4.372,4.372,0,0,1-.239.821c-.015.041-.047.086-.04.123a1.139,1.139,0,0,1-.14.649c-.1.272-.2.546-.327.807a1.7,1.7,0,0,0-.12.378,1.416,1.416,0,0,1-.239.438c-.221.326-.413.67-.618,1.006a.432.432,0,0,0-.053.12,1.08,1.08,0,0,1-.407.592,3.994,3.994,0,0,0-.56.519,2.2,2.2,0,0,1-.59.421c-.162.1-.354.16-.465.347-.061.1-.21.123-.32.177a4.238,4.238,0,0,0-.659.384,1.857,1.857,0,0,1-.55.214,9.658,9.658,0,0,1-1.426.337,6.727,6.727,0,0,0-.846.225c-.2.058-.4.1-.6.139-.387.083-.773.168-1.162.241a1.12,1.12,0,0,1-.373.007,4.434,4.434,0,0,0-.836-.006,1.293,1.293,0,0,1-.6-.1c-.192-.09-.385-.179-.582-.259a.327.327,0,0,0-.269-.039c-.085.033-.18.023-.171-.118,0-.076-.066-.085-.12-.106a11.68,11.68,0,0,1-1.129-.483c-.194-.1-.413-.144-.612-.238a1.189,1.189,0,0,1-.411-.25,2.021,2.021,0,0,0-.488-.371c-.181-.11-.312-.288-.52-.357-.036-.012-.067-.058-.089-.095a9.005,9.005,0,0,0-.672-.78,3.777,3.777,0,0,1-.456-.794.6.6,0,0,0-.056-.117,1.63,1.63,0,0,1-.239-.493c-.133-.41-.269-.818-.4-1.227a.914.914,0,0,1-.049-.215c-.029-.431-.145-.848-.207-1.274a3.116,3.116,0,0,1,.023-1.289.984.984,0,0,0,.037-.3,1.753,1.753,0,0,1,.086-.561c.114-.407.212-.818.329-1.223.049-.167.145-.318.207-.483a7.251,7.251,0,0,1,.686-1.422,3.047,3.047,0,0,0,.145-.339,4.845,4.845,0,0,1,.312-.527,5.025,5.025,0,0,1,.8-1.095c.34-.3.6-.683.939-.982a5.821,5.821,0,0,0,.481-.481,1.168,1.168,0,0,1,.378-.209c.146-.07.277-.162.42-.233a7.278,7.278,0,0,1,1.463-.641c.211-.053.4-.165.615-.221a4.286,4.286,0,0,1,.471-.1c.181-.027.36-.061.539-.1A2.944,2.944,0,0,1,543.051,300.06Zm1.8,9.426c0-.023-.016-.041-.041-.033-.009,0-.017.021-.017.033s.015.04.039.033C544.841,309.518,544.845,309.5,544.851,309.487Zm-.093.118a.05.05,0,0,0-.029.052c0,.037.024.05.058.036a.039.039,0,0,0,.019-.054A.044.044,0,0,0,544.758,309.605Z" transform="translate(-295.1 -271.242)" fill="#f29100"/>
      <path id="Path_4" data-name="Path 4" d="M568.016,193.985a5.112,5.112,0,0,0-.931,0c-.117,0-.229-.036-.344-.046-.415-.034-.826-.1-1.239-.138a2.818,2.818,0,0,1-1.165-.418,9.153,9.153,0,0,1-1.253-.938.964.964,0,0,1-.163-.223,6.507,6.507,0,0,1-.522-.788,2.917,2.917,0,0,1-.16-.5c-.056-.208-.107-.417-.164-.625a4.087,4.087,0,0,0-.259-.589,1.26,1.26,0,0,1-.111-.4c-.029-.307-.113-.606-.126-.915a1.711,1.711,0,0,0-.061-.341,1.577,1.577,0,0,1,.043-.773,3.9,3.9,0,0,0,.211-.9c0-.08.055-.145.071-.219a4.85,4.85,0,0,0,.15-.6.81.81,0,0,1,.222-.423,3.69,3.69,0,0,0,.351-.593,3.445,3.445,0,0,1,.59-.762c.106-.1.222-.175.218-.355,0-.094.105-.177.2-.2.227-.057.415-.2.636-.272a3.054,3.054,0,0,1,.336-.087c.179-.036.317-.156.489-.206.341-.1.7-.139,1.037-.238a.137.137,0,0,1,.068-.01,1.686,1.686,0,0,0,.9-.137c.242-.067.493-.035.735-.089a.23.23,0,0,1,.135.023c.309.145.648.2.961.33.465.188.963.28,1.421.476a4.188,4.188,0,0,1,.894.47c.025.019.045.049.072.057a.943.943,0,0,1,.445.319,5.088,5.088,0,0,0,.594.476,5.63,5.63,0,0,1,.492.489c.067.073.121.157.2.226a.343.343,0,0,1,.123.19c.012.2.122.359.141.556a3.48,3.48,0,0,0,.192.711,1.064,1.064,0,0,1,.036.568,4.038,4.038,0,0,0-.038.576c-.028.378-.116.743-.173,1.115-.031.206-.065.413-.078.621a3.247,3.247,0,0,1-.42,1.258.439.439,0,0,1-.072.088c-.269.3-.524.607-.811.885a4.487,4.487,0,0,1-.792.6c-.229.14-.454.286-.681.429a.458.458,0,0,1-.139.081.359.359,0,0,0-.218.155.485.485,0,0,1-.25.2.141.141,0,0,0-.088.069,1.217,1.217,0,0,1-.512.411,3.909,3.909,0,0,0-.363.2A1.422,1.422,0,0,1,568.016,193.985Z" transform="translate(-318.554 -169.336)" fill="#0e8934"/>
      <path id="Path_18" data-name="Path 18" d="M418.25,463.085c.479-.057.961-.048,1.44-.112.264-.035.532-.04.8-.05a.909.909,0,0,1,.695.582c.009.036.014.073.023.108a.463.463,0,0,1-.3.64,2.949,2.949,0,0,1-1.02.214c-.306-.012-.612,0-.918-.045a2.707,2.707,0,0,0-.818.072,3.282,3.282,0,0,1-.97,0,1.017,1.017,0,0,0-.3,0,5.034,5.034,0,0,1-1.065.046,1.646,1.646,0,0,0-.423.03,3.647,3.647,0,0,1-.868.037,5.624,5.624,0,0,0-1.534.142,3.293,3.293,0,0,1-.87.059c-.548-.007-1.1.047-1.643.058a17.557,17.557,0,0,0-1.842.17,5.667,5.667,0,0,1-.6.028c-.531.01-1.061.038-1.591.038a11.078,11.078,0,0,0-1.593.068,4.383,4.383,0,0,0-1.342.283.793.793,0,0,1-.344.059,10.6,10.6,0,0,0-1.336.148,3.606,3.606,0,0,1-1.217.009.92.92,0,0,0-.3-.006c-.34.035-.678.08-1.018.1-.356.022-.713.011-1.069.033-.448.028-.895-.028-1.344.006-.365.028-.727.1-1.094.1a1.079,1.079,0,0,0-.294.062,1.584,1.584,0,0,1-.616.079,1.574,1.574,0,0,0-.5.05.659.659,0,0,1-.3.017,2.482,2.482,0,0,0-1.013.025,2.085,2.085,0,0,1-.71-.051.639.639,0,0,0-.342-.011.27.27,0,0,1-.121.017c-.349-.039-.7.029-1.044,0a5.528,5.528,0,0,0-1.34.242,4.545,4.545,0,0,1-.977.134,1.05,1.05,0,0,1-.537-.072c-.043-.026-.114,0-.172.01-.438.052-.876.114-1.315.154a3.834,3.834,0,0,0-.662.127,5.84,5.84,0,0,1-.617.107.38.38,0,0,1-.405-.209.961.961,0,0,1-.1-.615.248.248,0,0,1,.283-.216c.267.009.529-.05.794-.059a3.618,3.618,0,0,1,.548.03.749.749,0,0,0,.272-.017c.487-.12.967-.269,1.444-.432a1.837,1.837,0,0,1,.768-.082,8.226,8.226,0,0,0,2.683-.093.591.591,0,0,1,.174-.019,6.6,6.6,0,0,0,1.5-.205c.362-.056.728-.09,1.091-.134a.423.423,0,0,0,.05,0,10.764,10.764,0,0,1,2.132-.015c.781-.041,1.56-.115,2.337-.208a2.359,2.359,0,0,1,.372-.014c.444.019.868-.164,1.311-.158.24,0,.481-.012.721-.006a3.664,3.664,0,0,0,.622-.061c.593-.089,1.192-.1,1.785-.19a6.21,6.21,0,0,1,1.12-.062c.182.006.364-.031.547-.043.863-.054,1.723-.152,2.584-.229.638-.056,1.276-.126,1.916-.161a9.254,9.254,0,0,1,.992-.064,2.007,2.007,0,0,1,.372.03.542.542,0,0,0,.223.013,4.834,4.834,0,0,1,.971-.068,4.486,4.486,0,0,0,1.109-.168,2.627,2.627,0,0,1,.692-.091,1.718,1.718,0,0,0,.593-.08.75.75,0,0,1,.2-.033,8.362,8.362,0,0,1,1.217-.048c.378.036.747-.034,1.117-.016A6.249,6.249,0,0,0,418.25,463.085Zm-24.079,2.325c.022.044.056.026.087.025s.061,0,.061-.029c0-.06-.043-.038-.071-.031S394.184,465.368,394.171,465.41Z" transform="translate(-165.706 -412.096)" fill="#118c75"/>
      <path id="Path_19" data-name="Path 19" d="M420.519,479.453c-.058,0-.116-.008-.173-.015-.482-.055-.961.027-1.442.015a11.681,11.681,0,0,0-1.424.192,2.627,2.627,0,0,1-1.042.012.72.72,0,0,0-.323.012,2.739,2.739,0,0,1-.92,0,4.359,4.359,0,0,0-.669.044,2.674,2.674,0,0,0-.833.111,2.894,2.894,0,0,1-.9.025,12.345,12.345,0,0,0-1.617.077,1.436,1.436,0,0,1-.689.008.912.912,0,0,0-.52.036,2.114,2.114,0,0,1-.666,0,1.215,1.215,0,0,1-.173-.02,2.958,2.958,0,0,0-1.183.082,1.285,1.285,0,0,1-.591.007,2.428,2.428,0,0,0-1.085.052,5,5,0,0,1-1.19.1,5.387,5.387,0,0,0-.7.028,1.047,1.047,0,0,1-.517-.041c-.1-.043-.2,0-.3,0a13.677,13.677,0,0,0-1.418.073.374.374,0,0,1-.1,0,7.463,7.463,0,0,0-1.318.017,2.247,2.247,0,0,0-.746.048,6.3,6.3,0,0,1-2.353.166c-.333-.025-.664.049-1,.011a6.567,6.567,0,0,0-1.1.01c-.482.026-.953.123-1.43.164a4.276,4.276,0,0,1-1.242.059.67.67,0,0,0-.274.011,1.143,1.143,0,0,1-.374.01,11.209,11.209,0,0,0-1.57-.052,4.793,4.793,0,0,0-1.034.141,3.636,3.636,0,0,1-.747.026.6.6,0,0,0-.245.031,1.5,1.5,0,0,1-.584.091c-.182.013-.366.011-.549.024-.306.023-.614-.015-.92.029s-.6.068-.89.117a3.169,3.169,0,0,1-.322.038.44.44,0,0,1-.516-.3.294.294,0,0,1,.017-.324c.082-.118.186-.2.311-.161a2.213,2.213,0,0,0,.719-.032,4.1,4.1,0,0,0,.465-.077,1.448,1.448,0,0,1,.54-.031,1.705,1.705,0,0,0,.489-.065c.729-.078,1.447-.228,2.178-.3.507-.049,1.014-.059,1.52-.1a1.722,1.722,0,0,0,.246-.039,7.3,7.3,0,0,1,1.088-.1,5.545,5.545,0,0,0,.836-.106,3.145,3.145,0,0,1,1.065-.086,2.755,2.755,0,0,0,.7-.019c.323-.044.649-.042.97-.1a6.69,6.69,0,0,1,.725,0,5.826,5.826,0,0,0,.863-.068,3.739,3.739,0,0,1,.672.014c.5-.021,1,.032,1.5-.014.232-.022.465-.041.7-.055.4-.023.8.026,1.2.019a5.128,5.128,0,0,0,.692-.087c.3-.046.59-.114.888-.148.281-.032.566-.025.848-.045a13.988,13.988,0,0,0,1.976-.258,3.015,3.015,0,0,1,.4-.012,8.759,8.759,0,0,1,.924-.057c.16,0,.307-.076.469-.066a15.658,15.658,0,0,0,1.6-.033,7.79,7.79,0,0,0,1.218-.14,12.566,12.566,0,0,1,1.369-.122,6.051,6.051,0,0,0,.987-.1.9.9,0,0,1,.149-.018,5.481,5.481,0,0,0,.99-.134,1.594,1.594,0,0,1,.473-.032c.583.021,1.168.009,1.749.07a2.026,2.026,0,0,0,.421-.029c.315-.031.632-.046.948-.068a.493.493,0,0,0,.124-.011,4.487,4.487,0,0,1,.991-.077.235.235,0,0,1,.1.006,4.588,4.588,0,0,0,1.22.044,1.111,1.111,0,0,0,.361-.1c.2-.059.423-.119.586.067.264.3.423.514.223.813a4.538,4.538,0,0,1-.468.6A.365.365,0,0,1,420.519,479.453Z" transform="translate(-165.768 -424.932)" fill="#118c75"/>
    </g>
    <g id="Group_23" data-name="Group 23" transform="translate(0 -1.656)">
      <path id="Path_418" data-name="Path 418" d="M7.92-9.96l3.03,3.21a24.449,24.449,0,0,0,2.19,2.115,12.5,12.5,0,0,0,1.845,1.3,6.23,6.23,0,0,0,1.635.66,7.048,7.048,0,0,0,1.59.18,9.973,9.973,0,0,0,4.41-1.14,19.5,19.5,0,0,0,4.41-3.03l1.86-1.68q.06.33.165,1.065T29.3-5.64q.135.9.27,1.83t.225,1.65a5.052,5.052,0,0,0,.285,1.32q.195.48.555.48a1.547,1.547,0,0,0,.48-.1,4.316,4.316,0,0,0,.585-.255,3.252,3.252,0,0,0,.495-.315q.21-.165.21-.285a2,2,0,0,0-.255-.84q-.255-.51-.57-1.2A11.414,11.414,0,0,1,31-4.935,7.086,7.086,0,0,1,30.75-6.9q0-1.65.12-3t.285-2.34q.165-.99.285-1.635a5.855,5.855,0,0,0,.12-.885.4.4,0,0,0-.165-.315,1.844,1.844,0,0,0-.39-.24,1.983,1.983,0,0,0-.45-.15,1.905,1.905,0,0,0-.345-.045q-.18,0-.345.3a4.671,4.671,0,0,0-.345,1.05,11.969,11.969,0,0,1-1.875,4.11A17.2,17.2,0,0,1,24.69-6.8,15.006,15.006,0,0,1,21.405-4.65a7.029,7.029,0,0,1-2.9.78,3.334,3.334,0,0,1-1.485-.42,11.259,11.259,0,0,1-1.74-1.125,23.435,23.435,0,0,1-1.845-1.59q-.93-.885-1.785-1.83t-1.59-1.86Q9.33-11.61,8.82-12.33q-1.17-1.71-1.935-2.76t-1.23-1.6a4.1,4.1,0,0,0-.735-.735.9.9,0,0,0-.48-.18,4.814,4.814,0,0,0-.495.03,4.941,4.941,0,0,0-.555.09,2.312,2.312,0,0,0-.465.15q-.195.09-.195.24a1.684,1.684,0,0,0,.5.975q.495.585,1.11,1.41a9.827,9.827,0,0,1,1.11,1.965,6.661,6.661,0,0,1,.495,2.67,8.652,8.652,0,0,1-.285,1.935A22.023,22.023,0,0,1,4.92-5.73,23.539,23.539,0,0,1,3.93-3.4,7.547,7.547,0,0,1,2.91-1.77a4.052,4.052,0,0,0-.54.72.967.967,0,0,0-.12.42.547.547,0,0,0,.135.3A1.875,1.875,0,0,0,2.73.015,2.631,2.631,0,0,0,3.18.3a1.012,1.012,0,0,0,.45.12A6.035,6.035,0,0,0,4.3.39,1.246,1.246,0,0,0,4.71.285.419.419,0,0,0,4.92.06a3.114,3.114,0,0,0,.12-.39A37.9,37.9,0,0,1,6.105-4.02Q6.93-6.54,7.92-9.96ZM39.81-8.67a9.02,9.02,0,0,1,.33-2.46,6.41,6.41,0,0,1,.96-2.04,4.847,4.847,0,0,1,1.56-1.4,4.2,4.2,0,0,1,2.1-.525,4.246,4.246,0,0,1,1.68.345,3.787,3.787,0,0,1,1.44,1.11A5.905,5.905,0,0,1,48.9-11.61a10.691,10.691,0,0,1,.39,3.12,8,8,0,0,1-.465,2.955,5,5,0,0,1-1.17,1.815,3.83,3.83,0,0,1-1.485.9,4.844,4.844,0,0,1-1.41.24,3.877,3.877,0,0,1-2.46-.75,5.737,5.737,0,0,1-1.515-1.755A7.179,7.179,0,0,1,40.02-7.11,8.4,8.4,0,0,1,39.81-8.67Zm-2.16.48a8.681,8.681,0,0,0,.57,3.27,7.378,7.378,0,0,0,1.47,2.355A6.033,6.033,0,0,0,41.73-1.14a5.767,5.767,0,0,0,2.25.48,7.034,7.034,0,0,0,2.715-.54A6.993,6.993,0,0,0,49.02-2.775,7.682,7.682,0,0,0,50.655-5.34a9.355,9.355,0,0,0,.615-3.51,11.922,11.922,0,0,0-.48-3.585,7.306,7.306,0,0,0-1.29-2.49,5.028,5.028,0,0,0-1.89-1.44,5.7,5.7,0,0,0-2.28-.465,7.258,7.258,0,0,0-3.525.8A7.216,7.216,0,0,0,39.42-13.98a8.4,8.4,0,0,0-1.35,2.79A11.3,11.3,0,0,0,37.65-8.19Zm18.63-6.84H59.7q.15,1.35.18,2.64t.03,2.64q0,1.59-.075,2.73t-.15,1.92q-.075.78-.15,1.26a5.278,5.278,0,0,0-.075.78,2.883,2.883,0,0,0,.27,1.155,3.862,3.862,0,0,0,.78,1.14A4.1,4.1,0,0,0,61.725.09,3.743,3.743,0,0,0,63.33.42,3.118,3.118,0,0,0,64.365.21a3.7,3.7,0,0,0,.915-.45.875.875,0,0,0,.27-.69,2.085,2.085,0,0,0-.045-.405.243.243,0,0,0-.255-.225,3.657,3.657,0,0,0-.465.045,3.834,3.834,0,0,1-.525.045,3.032,3.032,0,0,1-1.29-.24,2.092,2.092,0,0,1-.8-.615,2.34,2.34,0,0,1-.4-.84,3.767,3.767,0,0,1-.12-.945q0-2.13.045-3.8t.12-2.985q.075-1.32.18-2.355t.255-1.9h.96q.57,0,1.17-.03l1.185-.06q.585-.03,1.035-.09a1.177,1.177,0,0,0,.45-.18,2.137,2.137,0,0,0,.435-.36,3.681,3.681,0,0,0,.33-.405.614.614,0,0,0,.135-.315q0-.42-.45-.42-1.65,0-3.3.12t-3.3.12q-1.26,0-2.16-.045t-1.545-.09l-1.1-.075q-.45-.03-.78-.03a.866.866,0,0,0-.585.33.915.915,0,0,0-.315.57,1.75,1.75,0,0,0,.18.765.576.576,0,0,0,.54.375,5.586,5.586,0,0,0,.585-.03A5.3,5.3,0,0,1,56.28-15.03Zm15,0H74.7q.15,1.35.18,2.64t.03,2.64q0,1.59-.075,2.73t-.15,1.92q-.075.78-.15,1.26a5.278,5.278,0,0,0-.075.78,2.883,2.883,0,0,0,.27,1.155,3.862,3.862,0,0,0,.78,1.14A4.1,4.1,0,0,0,76.725.09a3.743,3.743,0,0,0,1.6.33A3.118,3.118,0,0,0,79.365.21a3.7,3.7,0,0,0,.915-.45.875.875,0,0,0,.27-.69,2.086,2.086,0,0,0-.045-.405.243.243,0,0,0-.255-.225,3.657,3.657,0,0,0-.465.045,3.834,3.834,0,0,1-.525.045,3.032,3.032,0,0,1-1.29-.24,2.092,2.092,0,0,1-.795-.615,2.34,2.34,0,0,1-.4-.84,3.767,3.767,0,0,1-.12-.945q0-2.13.045-3.8t.12-2.985q.075-1.32.18-2.355t.255-1.9h.96q.57,0,1.17-.03l1.185-.06q.585-.03,1.035-.09a1.177,1.177,0,0,0,.45-.18,2.137,2.137,0,0,0,.435-.36,3.681,3.681,0,0,0,.33-.405.614.614,0,0,0,.135-.315q0-.42-.45-.42-1.65,0-3.3.12t-3.3.12q-1.26,0-2.16-.045T72.2-16.9l-1.1-.075q-.45-.03-.78-.03a.866.866,0,0,0-.585.33.915.915,0,0,0-.315.57,1.75,1.75,0,0,0,.18.765.576.576,0,0,0,.54.375,5.586,5.586,0,0,0,.585-.03A5.3,5.3,0,0,1,71.28-15.03ZM96.87-7.71H91.44q-.51,0-.51-.21a1.056,1.056,0,0,1,.15-.435q.15-.285.48-.975l1.56-3.18a2.255,2.255,0,0,0,.15-.39q.06-.21.135-.42a2.349,2.349,0,0,1,.15-.345q.075-.135.165-.135.21,0,.315.375A6.109,6.109,0,0,0,94.5-12.36ZM92.16-6.33q.45,0,1.26.015t1.65.075q.84.06,1.56.165a3.683,3.683,0,0,1,1.02.255q.15.06.45.585t.63,1.185q.33.66.615,1.305t.375.915a3.478,3.478,0,0,0,.3.705.7.7,0,0,0,.45.375,2.725,2.725,0,0,0,.465.12q.315.06.675.12t.69.09q.33.03.51.03a1.088,1.088,0,0,0,.465-.1A.43.43,0,0,0,103.5-.93q0-.09-.195-.3t-.645-.8q-.45-.585-1.185-1.695t-1.815-3q-1.71-3-2.85-5.46T94.65-16.8a3.113,3.113,0,0,0-.615-.885q-.375-.375-.555-.375a1.263,1.263,0,0,0-.42.1,3.4,3.4,0,0,0-.54.27,2.956,2.956,0,0,0-.465.345.489.489,0,0,0-.195.33.815.815,0,0,0,.06.255q.06.165.135.375t.135.375a.815.815,0,0,1,.06.255,5.891,5.891,0,0,1-.42,1.86q-.42,1.17-1.065,2.535t-1.41,2.79Q88.59-7.14,87.93-5.925l-1.125,2.07A8.122,8.122,0,0,0,86.28-2.79a2.254,2.254,0,0,1-.765,1.125,3.039,3.039,0,0,1-.915.435.445.445,0,0,0-.285.2,1.328,1.328,0,0,0-.075.555.761.761,0,0,0,.075.315A.241.241,0,0,0,84.54,0q.06,0,.36-.015t.69-.045q.39-.03.795-.075T87.09-.21a.528.528,0,0,0,.345-.195,1.608,1.608,0,0,0,.225-.675,4.06,4.06,0,0,1,.315-.8q.255-.525.57-1.155l.63-1.26a8.529,8.529,0,0,0,.465-1.08,1.91,1.91,0,0,1,.27-.555.856.856,0,0,1,.4-.285,2.385,2.385,0,0,1,.69-.105Q91.44-6.33,92.16-6.33Zm15.78-2.94q0,2.37.015,4.035T108-2.475q.03,1.1.1,1.71A3.9,3.9,0,0,0,108.3.15a.651.651,0,0,0,.285.375A.9.9,0,0,0,108.96.6a.771.771,0,0,0,.735-.585,8.012,8.012,0,0,0,.225-2.385q0-5.4.075-8.5t.195-4.425a3.171,3.171,0,0,1,.165-.885,2.161,2.161,0,0,0,.135-.735q0-.18-.42-.435a1.488,1.488,0,0,0-.75-.255,1.277,1.277,0,0,0-.585.225,5.855,5.855,0,0,0-.735.525,4.686,4.686,0,0,0-.63.63.962.962,0,0,0-.27.51,1.3,1.3,0,0,0,.105.495,2.135,2.135,0,0,0,.4.585.884.884,0,0,1,.21.495,6.914,6.914,0,0,1,.03.7q0,.78.045,1.68T107.94-9.27Z" transform="translate(83.75 58)" fill="#e44325"/>
      <g id="Group_6" data-name="Group 6" transform="translate(95 25.656)">
        <g id="Group_5" data-name="Group 5" transform="translate(0)">
          <g id="Group_4" data-name="Group 4">
            <g id="Group_3" data-name="Group 3">
              <path id="Path_20" data-name="Path 20" d="M634.908,552.4a.732.732,0,0,1,.336-.036,2.055,2.055,0,0,0,.546.056.434.434,0,0,1,.351.165.118.118,0,0,1,.019.047c.03.2.079.387.1.586.015.17.041.34.071.508.052.289.113.577.157.863a2.366,2.366,0,0,0,.159.456,4.906,4.906,0,0,1,.233.669,1.179,1.179,0,0,0,.115.268c.054.1.081.208.135.309a3.732,3.732,0,0,1,.188.425,1.38,1.38,0,0,0,.2.322,4.181,4.181,0,0,0,.311.4,3.985,3.985,0,0,0,.348.371,1.2,1.2,0,0,1,.155.174,1.976,1.976,0,0,0,.375.318c.147.107.287.226.434.335s.289.177.424.275a2.951,2.951,0,0,0,.375.237c.12.06.252.112.37.177s.25.161.375.239c.037.02.03.049.022.076a.947.947,0,0,1-.115.235c-.1.157-.2.311-.311.458-.061.083-.164.13-.231.21a.129.129,0,0,1-.13.007,2.963,2.963,0,0,1-.482-.291,4.843,4.843,0,0,0-.53-.311,1.579,1.579,0,0,1-.282-.17,2.413,2.413,0,0,0-.282-.194,2.262,2.262,0,0,1-.537-.5,2.249,2.249,0,0,0-.319-.3,2.6,2.6,0,0,1-.311-.369,6.047,6.047,0,0,1-.7-1.087,2.486,2.486,0,0,0-.155-.244,1.888,1.888,0,0,1-.142-.306.782.782,0,0,0-.22-.291.34.34,0,0,0-.466.123,3.089,3.089,0,0,0-.149.49,4.025,4.025,0,0,1-.078.4,1.656,1.656,0,0,1-.216.4c-.1.139-.172.289-.272.423-.154.21-.289.434-.461.635-.093.112-.188.219-.292.322-.046.049-.068.123-.12.168-.132.1-.245.221-.375.324a2.755,2.755,0,0,0-.48.376.523.523,0,0,1-.194.13,1.947,1.947,0,0,1-.426.208c-.069.013-.11.076-.171.107a.134.134,0,0,1-.174-.02,5.213,5.213,0,0,0-.388-.4c-.13-.107-.225-.241-.362-.335a.07.07,0,0,1-.034-.09c-.044-.076.027-.1.081-.13a5.519,5.519,0,0,0,.637-.365c.125-.087.287-.119.38-.241.127-.174.336-.275.48-.436a4.006,4.006,0,0,1,.321-.3,3.75,3.75,0,0,0,.338-.353c.122-.145.235-.295.36-.438a2.79,2.79,0,0,0,.3-.4,2.887,2.887,0,0,0,.365-.941c.027-.146.056-.293.086-.438a.671.671,0,0,0,.01-.121.646.646,0,0,1,.042-.311c.014-.022.007-.056.007-.087a1.463,1.463,0,0,1,.054-.421,3.291,3.291,0,0,0,.044-.353c.027-.217.037-.438.081-.651a4.018,4.018,0,0,0,.015-.664,1.521,1.521,0,0,0-.047-.434,1.624,1.624,0,0,1-.012-.188A.074.074,0,0,1,634.908,552.4Z" transform="translate(-549.96 -552.351)" fill="#dc4a19"/>
              <path id="Path_21" data-name="Path 21" d="M574.148,555.9a.247.247,0,0,0,.189.15,1.074,1.074,0,0,0,.319.027c.105-.013.215.011.326-.007.022,0,.044,0,.063-.007a1.711,1.711,0,0,1,.564-.081,10.385,10.385,0,0,1,1.049,0c.14,0,.228.025.27.208a2.359,2.359,0,0,1,.059.613c-.007.136-.049.163-.2.168-.343.009-.686.049-1.027.089a1.751,1.751,0,0,1-.326-.016c-.137-.011-.272,0-.4,0-.176,0-.348.007-.519,0a3.048,3.048,0,0,0-.569.013.678.678,0,0,0-.39.184.565.565,0,0,0-.1.152c-.127.228-.257.461-.375.693a2.188,2.188,0,0,0-.184.4,1.18,1.18,0,0,1-.083.313,1.317,1.317,0,0,0-.127.44.255.255,0,0,0,.015.141c.01.029.029.06.061.063a1.148,1.148,0,0,0,.5.04,3.937,3.937,0,0,0,.422-.109,1,1,0,0,1,.269-.016,2.608,2.608,0,0,0,.644-.1c.066-.016.135-.022.206-.04a.171.171,0,0,0,.142-.194.407.407,0,0,0-.14-.233,2.385,2.385,0,0,0-.392-.342.381.381,0,0,1-.162-.25.131.131,0,0,1,.029-.105.541.541,0,0,1,.265-.223,1.416,1.416,0,0,0,.272-.121.42.42,0,0,1,.487.06,2.185,2.185,0,0,1,.537.615c.039.072.122.112.157.188a1.317,1.317,0,0,0,.282.315,2.409,2.409,0,0,1,.338.436c.1.152.238.279.346.432.061.087.135.17.2.253-.12.072-.231.148-.353.208a3.336,3.336,0,0,0-.468.322.5.5,0,0,1-.169.069.075.075,0,0,1-.093-.04,1.078,1.078,0,0,1-.1-.2.71.71,0,0,0-.169-.253.415.415,0,0,0-.368-.074c-.24.031-.482.065-.725.1a2.625,2.625,0,0,0-.583.172,1.662,1.662,0,0,1-.478.089c-.208.02-.417,0-.622.014-.147.013-.3.042-.441.063s-.282.054-.424.074c-.125.02-.25.04-.375.054a6.442,6.442,0,0,1-1.019.065c-.108,0-.2.061-.311.047-.059-.007-.081-.018-.1-.074a1.665,1.665,0,0,0-.159-.369.591.591,0,0,1-.044-.228c-.01-.087-.01-.172-.022-.259-.015-.165.056-.228.248-.233a1.49,1.49,0,0,0,.446-.029.468.468,0,0,0,.24-.17c.025-.038.068-.047.091-.085a.484.484,0,0,0,.076-.154c.059-.143.159-.268.22-.4a4.144,4.144,0,0,1,.228-.4c.076-.125.164-.246.242-.373.088-.152.172-.309.25-.465.088-.181.01-.351-.228-.4a1.062,1.062,0,0,0-.561.056.931.931,0,0,1-.3.061c-.2.016-.4.02-.6.047a.332.332,0,0,1-.049,0c-.11-.007-.14-.022-.137-.123a1.722,1.722,0,0,0-.037-.257c-.015-.128,0-.251-.024-.376a.266.266,0,0,0-.169-.215l.076-.154a.872.872,0,0,0,.13.038,1.388,1.388,0,0,0,.439.022,5.218,5.218,0,0,1,.532-.007c.176.007.353.013.524.027a.419.419,0,0,0,.14-.009,3.331,3.331,0,0,1,.515-.047.582.582,0,0,0,.294-.1.3.3,0,0,0,.088-.206.753.753,0,0,0-.022-.347,2.634,2.634,0,0,1-.088-.552.238.238,0,0,0-.235-.226,1.654,1.654,0,0,0-.517.038.848.848,0,0,1-.233-.02,3.023,3.023,0,0,0-.424-.025,3.553,3.553,0,0,0-.537-.009.848.848,0,0,1-.184-.014c-.068,0-.054-.08-.083-.121v-.014a1.987,1.987,0,0,0-.061-.479.242.242,0,0,0-.252-.183l.13-.174a.9.9,0,0,0,.221.056,3.223,3.223,0,0,1,.348.074.32.32,0,0,0,.081.013c.252,0,.507.007.755-.016a2.434,2.434,0,0,0,.309-.045,3.2,3.2,0,0,1,.385-.013c.206-.013.323-.114.313-.3-.012-.208-.007-.416-.022-.624,0-.036,0-.071,0-.11,0-.157.078-.224.252-.228.086,0,.169,0,.255.011a3.12,3.12,0,0,0,.539-.02c.069-.007.135-.018.2-.02.127,0,.184.056.162.17a.122.122,0,0,0,0,.067,1.883,1.883,0,0,1,.064.606.923.923,0,0,1,.007.2c-.007.054.032.1.1.114a1.817,1.817,0,0,0,.524.076c.088,0,.179.018.267.013a2.417,2.417,0,0,0,.444-.022,1.793,1.793,0,0,1,.581.029c.044,0,.083-.009.127-.007.147,0,.2.051.218.183a4.543,4.543,0,0,1,.063.476c0,.014.02.031.027.047.015.049.015.087-.064.11a1.3,1.3,0,0,1-.26.054,1.863,1.863,0,0,1-.274-.016,2.243,2.243,0,0,0-.559-.024,1.2,1.2,0,0,1-.262.045c-.211-.011-.419-.031-.628-.045-.015,0-.034-.007-.042,0a1.988,1.988,0,0,0-.311.161.2.2,0,0,0-.052.161,1.307,1.307,0,0,0,.022.378,1.593,1.593,0,0,1,.015.246A.994.994,0,0,0,574.148,555.9Z" transform="translate(-507.53 -552.466)" fill="#dc4a19"/>
              <path id="Path_22" data-name="Path 22" d="M563.482,572.779a1.437,1.437,0,0,1-.419-.27,1.439,1.439,0,0,0-.306-.19.371.371,0,0,1-.22-.329c-.042-.141.059-.284.1-.438s.147-.257.2-.4a2.746,2.746,0,0,0,.162-.432.747.747,0,0,1,.14-.282,1.551,1.551,0,0,0,.154-.293c.046-.114.083-.228.125-.342a.069.069,0,0,1,.069-.054c.037,0,.074-.018.113-.02a.15.15,0,0,1,.14.033c.086.074.162.154.255.222a1.148,1.148,0,0,0,.4.19c.081.02.115.06.1.141a1.458,1.458,0,0,1-.113.391c-.052.13-.093.264-.152.4a4.69,4.69,0,0,1-.218.568.66.66,0,0,0-.056.248.563.563,0,0,1-.069.228,3.866,3.866,0,0,0-.181.458.759.759,0,0,1-.128.17C563.541,572.817,563.507,572.79,563.482,572.779Z" transform="translate(-502.307 -564.394)" fill="#dc4a19"/>
              <path id="Path_23" data-name="Path 23" d="M563.753,553.512a.988.988,0,0,1,.181-.159.086.086,0,0,1,.083-.011.574.574,0,0,1,.135.072,1.877,1.877,0,0,0,.346.192,1.039,1.039,0,0,1,.164.134,2.8,2.8,0,0,0,.431.264c.15.094.3.181.458.273l.068.034-.13.174a.265.265,0,0,0-.122.029,1.22,1.22,0,0,0-.348.277,1.428,1.428,0,0,1-.218.192c-.054.047-.105-.007-.14-.025a5.252,5.252,0,0,1-.684-.358c-.159-.114-.343-.19-.493-.315-.056-.043-.083-.107-.154-.141-.022-.009-.007-.047.007-.067C563.479,553.892,563.626,553.706,563.753,553.512Z" transform="translate(-502.857 -553.034)" fill="#dc4a19"/>
              <path id="Path_24" data-name="Path 24" d="M562.559,560.778a.266.266,0,0,1,.372-.02,2.052,2.052,0,0,0,.37.206.716.716,0,0,1,.2.13,1.269,1.269,0,0,0,.2.148,5.227,5.227,0,0,1,.507.389,1.155,1.155,0,0,0,.34.186l-.076.155a.331.331,0,0,0-.341.024.467.467,0,0,0-.147.163,1.174,1.174,0,0,1-.225.309.247.247,0,0,1-.314,0,2.091,2.091,0,0,0-.713-.481,2.317,2.317,0,0,1-.488-.282c-.1-.056-.157-.167-.235-.255a.05.05,0,0,1,0-.063,1.035,1.035,0,0,1,.184-.25C562.318,561.013,562.436,560.892,562.559,560.778Z" transform="translate(-501.942 -558.131)" fill="#dc4a19"/>
              <path id="Path_25" data-name="Path 25" d="M496.884,559.041c.044.1.049.208.1.3a2.534,2.534,0,0,0,.167.338.77.77,0,0,1,.078.118,3.459,3.459,0,0,1,.186.365,1.439,1.439,0,0,0,.377.393,1.769,1.769,0,0,0,.537.3c.206.08.427.067.63.134a.238.238,0,0,0,.1.013c.184-.027.368-.007.547-.038a1.943,1.943,0,0,0,.647-.23c.179-.1.346-.221.512-.338a.742.742,0,0,0,.225-.188,2.8,2.8,0,0,1,.394-.441c.052-.054.118-.094.147-.161.049-.125.11-.246.167-.369a2.447,2.447,0,0,0,.15-.336c.044-.17.081-.338.113-.508a3.423,3.423,0,0,0,.086-.469,1.822,1.822,0,0,0,0-.461.918.918,0,0,0-.047-.262c-.052-.248-.162-.479-.223-.72a.21.21,0,0,0-.029-.1,2.848,2.848,0,0,1-.191-.232,1.8,1.8,0,0,0-.414-.371,2.347,2.347,0,0,0-.522-.3c-.125-.04-.223-.128-.356-.161-.208-.054-.429-.067-.647-.1a1.273,1.273,0,0,0-.35-.04,2.578,2.578,0,0,0-.392.06.8.8,0,0,1-.213.051,1.656,1.656,0,0,0-.684.217,1.367,1.367,0,0,0-.414.322,3.358,3.358,0,0,0-.4.573,1.86,1.86,0,0,0-.2.42c-.042.141-.093.28-.132.418a3.84,3.84,0,0,0-.137.7,1.64,1.64,0,0,0,.037.463,1.431,1.431,0,0,0,.044.369C496.823,558.867,496.845,558.956,496.884,559.041ZM499,554.012c.167.013.336,0,.5,0a3.184,3.184,0,0,1,.725.047,3.059,3.059,0,0,1,.466.134c.1.036.2,0,.3.043a.8.8,0,0,0,.341.067.191.191,0,0,1,.073.02,3.379,3.379,0,0,1,.757.469c.186.148.372.291.546.447a2.3,2.3,0,0,1,.417.492,2.752,2.752,0,0,0,.211.239,1.312,1.312,0,0,1,.252.526.806.806,0,0,0,.1.186,3.475,3.475,0,0,1,.221.633c.032.127.068.259.088.389a.965.965,0,0,1,0,.188c-.007.19-.01.38-.029.568a5.458,5.458,0,0,1-.1.566,2.935,2.935,0,0,1-.26.718c-.088.183-.2.36-.3.541a4.54,4.54,0,0,1-.505.693,1.321,1.321,0,0,1-.262.237,4.48,4.48,0,0,0-.38.315.589.589,0,0,1-.147.1.522.522,0,0,0-.154.1,1.612,1.612,0,0,1-.419.215c-.142.069-.3.114-.431.185a1.467,1.467,0,0,1-.8.266c-.186.016-.377.049-.564.069a2.88,2.88,0,0,1-.664,0,2.652,2.652,0,0,1-.316-.034,7.163,7.163,0,0,1-.87-.257,4.948,4.948,0,0,1-.62-.221.913.913,0,0,0-.285-.15c-.051-.011-.071-.074-.108-.112-.118-.123-.257-.224-.377-.344a1.634,1.634,0,0,1-.341-.447,2,2,0,0,0-.22-.313.392.392,0,0,1-.069-.148.681.681,0,0,0-.11-.232,1.838,1.838,0,0,1-.189-.617.235.235,0,0,0-.073-.161c-.01-.007-.022-.022-.017-.033.01-.078-.049-.139-.069-.21a1.093,1.093,0,0,1-.066-.42c-.02-.248-.037-.537-.064-.821a1.622,1.622,0,0,1,.034-.344c0-.06.01-.118.01-.179a.6.6,0,0,1,.118-.38.382.382,0,0,0,.061-.181,1.981,1.981,0,0,1,.132-.411c.059-.174.159-.333.22-.5a.414.414,0,0,1,.115-.141c.127-.123.216-.275.336-.4a5.359,5.359,0,0,1,.6-.59,1.8,1.8,0,0,1,.387-.242,3.485,3.485,0,0,0,.5-.266,1.921,1.921,0,0,1,.573-.235.505.505,0,0,1,.215-.025.063.063,0,0,0,.047-.007A1.066,1.066,0,0,1,499,554.012Z" transform="translate(-455.637 -553.494)" fill="#dc4a19"/>
              <path id="Path_26" data-name="Path 26" d="M450.464,554.468c-.014,0-.037-.009-.029-.029s.025-.014.039-.011a1.132,1.132,0,0,1,.3.067A1.009,1.009,0,0,1,450.464,554.468Z" transform="translate(-424.624 -553.789)" fill="#dc4a19"/>
              <path id="Path_27" data-name="Path 27" d="M435.56,557.293a1.759,1.759,0,0,1,0,.394.283.283,0,0,0,.076.232c.086.1.176.15.265.114a.42.42,0,0,1,.191-.025,2.739,2.739,0,0,0,.605-.022c.223-.045.448-.013.666-.052a.133.133,0,0,1,.042,0,.156.156,0,0,0,.105,0c.162-.025.324-.052.485-.085s.3-.069.443-.116a.6.6,0,0,0,.3-.195,2.53,2.53,0,0,0,.253-.4,1.484,1.484,0,0,0,.147-.577.22.22,0,0,0,0-.09c-.074-.161-.1-.338-.179-.5-.025-.045-.074-.078-.088-.132a.488.488,0,0,0-.238-.315c-.088-.047-.167-.114-.257-.154a1.291,1.291,0,0,0-.4-.063c-.125-.018-.253-.027-.378-.04a.94.94,0,0,1-.235-.031.716.716,0,0,0-.26-.047,2.136,2.136,0,0,1-.4-.027,1.714,1.714,0,0,0-.4-.029,3.443,3.443,0,0,0-.578.127.177.177,0,0,0-.115.107,1.253,1.253,0,0,0-.037.19,1.322,1.322,0,0,0-.066.514,1.856,1.856,0,0,1,.012.349c-.012.17.032.338.037.51C435.562,557.053,435.56,557.174,435.56,557.293Zm.032,2.231c.012.146-.051.284-.032.425.015.119.039.233.061.347a.967.967,0,0,1-.007.411.607.607,0,0,0,.064.447.246.246,0,0,1,.01.04,3.149,3.149,0,0,1-.017.525c-.02.114,0,.235-.029.349s-.012.148-.174.141-.336-.052-.5-.054c-.029,0-.056-.007-.086-.007-.186,0-.372,0-.561,0s-.377-.033-.569-.031c-.039,0-.037-.02-.039-.047a1.518,1.518,0,0,1,.007-.38c.017-.179-.007-.356,0-.532,0-.092,0-.186,0-.275,0-.054-.012-.11.039-.155.02-.016.012-.042.007-.067-.01-.157.015-.311.007-.467a7.971,7.971,0,0,1,.027-.875c.01-.141-.012-.281.007-.422s0-.266.025-.4a.663.663,0,0,0-.015-.154c-.007-.152.007-.3.007-.449-.007-.27.019-.541.036-.81a1.686,1.686,0,0,0-.007-.195c0-.163.012-.331.012-.494,0-.141-.041-.282-.037-.427,0-.078,0-.163,0-.244a1.407,1.407,0,0,0-.037-.512.309.309,0,0,1-.01-.163,1.752,1.752,0,0,0,.017-.519c0-.154-.007-.3-.015-.459a.381.381,0,0,1,.02-.147c.025-.067.11-.078.169-.074.191.007.38-.018.569-.011.171.011.348.011.519.033a2.993,2.993,0,0,0,.451.018,4.021,4.021,0,0,1,.522.034c.15.016.3.013.456.034.211.027.429.029.642.069a5.318,5.318,0,0,0,.794.08c.211.011.417.018.62.027a1.2,1.2,0,0,1,.316.074c.118.034.242.027.355.067a2.2,2.2,0,0,1,.676.215.914.914,0,0,1,.076.056,4.43,4.43,0,0,0,.449.382.66.66,0,0,1,.2.255c.049.089.111.17.167.257a1.038,1.038,0,0,1,.179.472.731.731,0,0,0,.061.275,1.118,1.118,0,0,1,.034.324,2.084,2.084,0,0,1,0,.552,2.288,2.288,0,0,1-.154.535,1.783,1.783,0,0,1-.37.53,1.984,1.984,0,0,1-.358.342c-.1.063-.213.11-.309.181a2.919,2.919,0,0,1-.378.244,1.131,1.131,0,0,1-.292.087c-.162.027-.314.069-.475.1a4.423,4.423,0,0,1-.713.132,2.025,2.025,0,0,1-.394.038,1.578,1.578,0,0,0-.277.013.191.191,0,0,1-.15-.022.465.465,0,0,0-.223-.018,1.747,1.747,0,0,1-.37-.009,1.163,1.163,0,0,0-.713.053.73.73,0,0,0-.272.224C435.6,559.509,435.589,559.517,435.592,559.524Z" transform="translate(-413.026 -553.382)" fill="#dc4a19"/>
              <path id="Path_28" data-name="Path 28" d="M371.477,558.112a3,3,0,0,1,.233.324,4.413,4.413,0,0,0,.478.6,1.157,1.157,0,0,0,.25.212.4.4,0,0,0,.487-.121.471.471,0,0,0,.052-.4q-.052-.389-.11-.771a5.216,5.216,0,0,1-.034-.678,2.445,2.445,0,0,0-.061-.46.142.142,0,0,1,0-.078.133.133,0,0,0,.007-.1,1.226,1.226,0,0,1-.017-.432.91.91,0,0,0-.034-.266.44.44,0,0,1-.01-.114c.025-.121-.042-.237-.012-.36a1.1,1.1,0,0,0,0-.456.762.762,0,0,1,0-.183,1.646,1.646,0,0,0-.007-.4.333.333,0,0,1,0-.121,1.381,1.381,0,0,0,.029-.266.561.561,0,0,1,.147-.394.183.183,0,0,1,.166-.063.128.128,0,0,0,.135-.044c.007-.009.015-.031.037-.025a.343.343,0,0,0,.245-.025.567.567,0,0,1,.358.04,1.838,1.838,0,0,0,.476.083,1.184,1.184,0,0,1,.514.127c.054.034.14.054.162.121a.343.343,0,0,1-.007.192.554.554,0,0,0,0,.157,2.165,2.165,0,0,0,0,.418c.015.063-.039.116-.037.181.022.3-.044.608-.039.912.007.253.007.5.01.754,0,.078.019.154.022.233a1.452,1.452,0,0,1-.01.23.734.734,0,0,0-.012.1,1.349,1.349,0,0,1-.025.261,1.235,1.235,0,0,0,.022.4,2.794,2.794,0,0,1,.007.347c0,.2.007.4,0,.59a2.543,2.543,0,0,0-.022.338,2.351,2.351,0,0,1,.022.452,2.082,2.082,0,0,0,.019.349c.017.181,0,.367.007.552,0,.134-.007.271,0,.407a4.058,4.058,0,0,0-.007.452c.027.154-.024.3-.01.456a.685.685,0,0,1-.034.25.231.231,0,0,1-.179.146.814.814,0,0,1-.294.033c-.01,0-.029,0-.039,0a.694.694,0,0,1-.338.045,1.431,1.431,0,0,1-.147-.027.639.639,0,0,0-.253-.02,1.421,1.421,0,0,1-.458-.054,2.638,2.638,0,0,1-.3-.038.248.248,0,0,1-.071-.02c-.181-.134-.429-.184-.591-.353-.032-.038-.059-.078-.088-.119a2.392,2.392,0,0,1-.245-.335c-.106-.224-.265-.425-.385-.637a1.3,1.3,0,0,0-.186-.262.445.445,0,0,1-.071-.159,3.694,3.694,0,0,0-.541-.89c-.022-.022-.049-.043-.074-.067-.122-.121-.132-.286-.233-.414-.054-.078-.1-.159-.159-.232-.13-.163-.265-.32-.409-.472-.135-.136-.208-.306-.341-.44-.105-.107-.172-.239-.287-.338a.268.268,0,0,1-.088-.165c0-.061-.049-.1-.086-.136s-.11-.1-.159-.154a.4.4,0,0,0-.319-.047.213.213,0,0,0-.106.157,1.528,1.528,0,0,0,.017.526c.015.092.007.181.022.268a1.532,1.532,0,0,0,.044.217.912.912,0,0,1-.029.327c0,.013-.007.022-.007.036a2.514,2.514,0,0,1-.051.4,4.32,4.32,0,0,1-.066.438,1.433,1.433,0,0,0-.032.409c0,.257,0,.516,0,.776a1.69,1.69,0,0,0,.054.43,5.758,5.758,0,0,1,.093.642,1.137,1.137,0,0,1,.025.275.337.337,0,0,1-.3.289.863.863,0,0,1-.392.036c-.056-.009-.115,0-.169,0-.2,0-.377-.069-.573-.074-.135,0-.272-.009-.407,0a.4.4,0,0,1-.267-.094c-.044-.027-.022-.069-.027-.109a3.418,3.418,0,0,1,.078-.608,2.253,2.253,0,0,0,.059-.443.421.421,0,0,1,.029-.184.952.952,0,0,0,.025-.4,4.418,4.418,0,0,1,0-.443c.007-.123,0-.251.007-.378.007-.275-.019-.552-.029-.825,0-.141-.029-.282-.022-.42,0-.1-.042-.2,0-.3a.065.065,0,0,0,0-.038,2.506,2.506,0,0,1,.007-.508c0-.071-.049-.134-.042-.206a1.393,1.393,0,0,1,.059-.411.259.259,0,0,0,0-.177.617.617,0,0,1,0-.19,1.136,1.136,0,0,0-.015-.315c-.01-.163-.007-.331-.032-.492a3.849,3.849,0,0,1-.037-.557,3.476,3.476,0,0,1,.032-.7.89.89,0,0,1,.044-.21.065.065,0,0,1,.066-.045.647.647,0,0,0,.309-.076.4.4,0,0,1,.191-.04c.154,0,.3-.031.453-.045a.657.657,0,0,1,.22.045,2.335,2.335,0,0,0,.414.067.793.793,0,0,1,.353.053c.073.043.1.123.164.177a1.437,1.437,0,0,1,.313.423c.047.087.135.147.189.23.088.127.184.248.277.371a4.612,4.612,0,0,1,.451.633,1.3,1.3,0,0,0,.1.137.694.694,0,0,1,.145.239.285.285,0,0,0,.1.143,2.983,2.983,0,0,1,.267.365,1.435,1.435,0,0,0,.086.125c.118.136.157.311.277.445a1.509,1.509,0,0,1,.235.447A2.264,2.264,0,0,0,371.477,558.112Z" transform="translate(-366.357 -553.135)" fill="#dc4a19"/>
            </g>
          </g>
        </g>
      </g>
    </g>
  </g>
</svg>
